ffmpeg version N-82151-g1e660fe Copyright (c) 2000-2016 the FFmpeg developers
  built with gcc 5.4.0 (GCC)
  configuration: --enable-gpl --enable-version3 --disable-w32threads --enable-dxva2 --enable-libmfx --enable-nvenc --enable-avisynth --enable-bzlib --enable-libebur128 --enable-fontconfig --enable-frei0r --enable-gnutls --enable-iconv --enable-libass --enable-libbluray --enable-libbs2b --enable-libcaca --enable-libfreetype --enable-libgme --enable-libgsm --enable-libilbc --enable-libmodplug --enable-libmp3lame --enable-libopencore-amrnb --enable-libopencore-amrwb --enable-libopenh264 --enable-libopenjpeg --enable-libopus --enable-librtmp --enable-libschroedinger --enable-libsnappy --enable-libsoxr --enable-libspeex --enable-libtheora --enable-libtwolame --enable-libvidstab --enable-libvo-amrwbenc --enable-libvorbis --enable-libvpx --enable-libwavpack --enable-libwebp --enable-libx264 --enable-libx265 --enable-libxavs --enable-libxvid --enable-libzimg --enable-lzma --enable-decklink --enable-zlib
  libavutil      55. 35.100 / 55. 35.100
  libavcodec     57. 65.100 / 57. 65.100
  libavformat    57. 57.100 / 57. 57.100
  libavdevice    57.  2.100 / 57.  2.100
  libavfilter     6. 66.100 /  6. 66.100
  libswscale      4.  3.100 /  4.  3.100
  libswresample   2.  4.100 /  2.  4.100
  libpostproc    54.  2.100 / 54.  2.100
Input #0, image2pipe, from 'pipe:':
  Duration: N/A, bitrate: N/A
    Stream #0:0: Video: ppm, rgb24, 320x240, 20 fps, 20 tbr, 20 tbn, 20 tbc
[libx264 @ 00000000028a4ba0] using cpu capabilities: MMX2 SSE2Fast SSSE3 SSE4.2 AVX FMA3 AVX2 LZCNT BMI2
[libx264 @ 00000000028a4ba0] profile High, level 1.3
[libx264 @ 00000000028a4ba0] 264 - core 148 r2721 72d53ab - H.264/MPEG-4 AVC codec - Copyleft 2003-2016 - http://www.videolan.org/x264.html - options: cabac=1 ref=3 deblock=1:0:0 analyse=0x3:0x113 me=hex subme=7 psy=1 psy_rd=1.00:0.00 mixed_ref=1 me_range=16 chroma_me=1 trellis=1 8x8dct=1 cqm=0 deadzone=21,11 fast_pskip=1 chroma_qp_offset=-2 threads=7 lookahead_threads=1 sliced_threads=0 nr=0 decimate=1 interlaced=0 bluray_compat=0 constrained_intra=0 bframes=3 b_pyramid=2 b_adapt=1 b_bias=0 direct=1 weightb=1 open_gop=0 weightp=2 keyint=250 keyint_min=20 scenecut=40 intra_refresh=0 rc_lookahead=40 rc=abr mbtree=1 bitrate=400 ratetol=1.0 qcomp=0.60 qpmin=0 qpmax=69 qpstep=4 ip_ratio=1.40 aq=1:1.00
Output #0, mp4, to '.\mission_records\36252279-2b85-42d1-b7e6-38a4884dd6b6\video.mp4':
  Metadata:
    encoder         : Lavf57.57.100
    Stream #0:0: Video: h264 (libx264) ([33][0][0][0] / 0x0021), yuv420p, 320x240, q=-1--1, 400 kb/s, 20 fps, 10240 tbn, 20 tbc
    Metadata:
      encoder         : Lavc57.65.100 libx264
    Side data:
      cpb: bitrate max/min/avg: 0/0/400000 buffer size: 0 vbv_delay: -1
Stream mapping:
  Stream #0:0 -> #0:0 (ppm (native) -> h264 (libx264))
frame=   33 fps=0.0 q=0.0 size=       0kB time=00:00:00.00 bitrate=N/A speed=   0x    frame=   42 fps= 37 q=0.0 size=       0kB time=00:00:00.00 bitrate=N/A speed=   0x    frame=   51 fps= 31 q=0.0 size=       0kB time=00:00:00.00 bitrate=N/A speed=   0x    frame=   60 fps= 27 q=18.0 size=       9kB time=00:00:00.30 bitrate= 239.6kbits/s speed=0.137x    frame=   69 fps= 26 q=19.0 size=      40kB time=00:00:00.75 bitrate= 437.1kbits/s speed=0.278x    frame=   78 fps= 24 q=21.0 size=      73kB time=00:00:01.20 bitrate= 496.6kbits/s speed=0.369x    frame=   87 fps= 23 q=21.0 size=      93kB time=00:00:01.65 bitrate= 459.3kbits/s speed=0.437x    frame=   96 fps= 22 q=21.0 size=     116kB time=00:00:02.10 bitrate= 452.4kbits/s speed=0.489x    frame=  105 fps= 22 q=18.0 size=     139kB time=00:00:02.55 bitrate= 447.5kbits/s speed=0.53x    frame=  114 fps= 21 q=21.0 size=     159kB time=00:00:03.00 bitrate= 435.1kbits/s speed=0.561x    frame=  123 fps= 21 q=21.0 size=     177kB time=00:00:03.45 bitrate= 420.7kbits/s speed=0.589x    frame=  132 fps= 21 q=21.0 size=     204kB time=00:00:03.90 bitrate= 429.1kbits/s speed=0.609x    frame=  141 fps= 20 q=21.0 size=     224kB time=00:00:04.35 bitrate= 421.7kbits/s speed=0.626x    frame=  150 fps= 20 q=21.0 size=     246kB time=00:00:04.80 bitrate= 420.2kbits/s speed=0.641x    frame=  159 fps= 20 q=18.0 size=     267kB time=00:00:05.25 bitrate= 416.6kbits/s speed=0.653x    frame=  168 fps= 20 q=21.0 size=     294kB time=00:00:05.70 bitrate= 422.1kbits/s speed=0.663x    frame=  169 fps= 18 q=-1.0 Lsize=     422kB time=00:00:08.30 bitrate= 416.7kbits/s speed=0.902x    
video:420kB audio:0kB subtitle:0kB other streams:0kB global headers:0kB muxing overhead: 0.604606%
[libx264 @ 00000000028a4ba0] frame I:16    Avg QP:13.18  size:  4929
[libx264 @ 00000000028a4ba0] frame P:66    Avg QP:16.04  size:  2719
[libx264 @ 00000000028a4ba0] frame B:87    Avg QP:16.06  size:  1962
[libx264 @ 00000000028a4ba0] consecutive B-frames: 27.2%  8.3% 12.4% 52.1%
[libx264 @ 00000000028a4ba0] mb I  I16..4: 34.0% 49.3% 16.7%
[libx264 @ 00000000028a4ba0] mb P  I16..4:  8.3% 16.4%  4.7%  P16..4: 18.4% 17.4% 10.0%  0.0%  0.0%    skip:24.9%
[libx264 @ 00000000028a4ba0] mb B  I16..4:  2.8%  2.5%  1.0%  B16..8: 27.1% 22.0% 10.3%  direct: 2.9%  skip:31.3%  L0:50.4% L1:42.7% BI: 6.9%
[libx264 @ 00000000028a4ba0] final ratefactor: 15.88
[libx264 @ 00000000028a4ba0] 8x8 transform intra:51.1% inter:53.1%
[libx264 @ 00000000028a4ba0] coded y,uvDC,uvAC intra: 59.5% 27.4% 13.2% inter: 29.0% 4.5% 0.6%
[libx264 @ 00000000028a4ba0] i16 v,h,dc,p: 12% 86%  1%  1%
[libx264 @ 00000000028a4ba0] i8 v,h,dc,ddl,ddr,vr,hd,vl,hu:  6% 22% 36%  5%  6%  3% 10%  3%  9%
[libx264 @ 00000000028a4ba0] i4 v,h,dc,ddl,ddr,vr,hd,vl,hu: 11% 26% 22%  5%  9%  5% 12%  3%  7%
[libx264 @ 00000000028a4ba0] i8c dc,h,v,p: 55% 38%  6%  1%
[libx264 @ 00000000028a4ba0] Weighted P-Frames: Y:0.0% UV:0.0%
[libx264 @ 00000000028a4ba0] ref P L0: 64.8%  4.7% 19.3% 11.2%
[libx264 @ 00000000028a4ba0] ref B L0: 85.9% 10.0%  4.1%
[libx264 @ 00000000028a4ba0] ref B L1: 96.7%  3.3%
[libx264 @ 00000000028a4ba0] kb/s:406.15
400.77
